<svg width="659" height="819" viewBox="0 0 659 819" fill="none" xmlns="http://www.w3.org/2000/svg">
<path d="M29.964 76.08C24.78 76.08 20.34 74.952 16.644 72.696C12.948 70.416 10.104 67.248 8.112 63.192C6.144 59.136 5.16 54.432 5.16 49.08C5.16 43.728 6.144 39.024 8.112 34.968C10.104 30.912 12.948 27.756 16.644 25.5C20.34 23.22 24.78 22.08 29.964 22.08C35.94 22.08 40.92 23.58 44.904 26.58C48.888 29.556 51.684 33.576 53.292 38.64L44.544 41.052C43.536 37.668 41.82 35.028 39.396 33.132C36.972 31.212 33.828 30.252 29.964 30.252C26.484 30.252 23.58 31.032 21.252 32.592C18.948 34.152 17.208 36.348 16.032 39.18C14.88 41.988 14.292 45.288 14.268 49.08C14.268 52.872 14.844 56.184 15.996 59.016C17.172 61.824 18.924 64.008 21.252 65.568C23.58 67.128 26.484 67.908 29.964 67.908C33.828 67.908 36.972 66.948 39.396 65.028C41.82 63.108 43.536 60.468 44.544 57.108L53.292 59.52C51.684 64.584 48.888 68.616 44.904 71.616C40.92 74.592 35.94 76.08 29.964 76.08ZM70.6283 76.08C67.8203 76.08 65.4443 75.552 63.5003 74.496C61.5563 73.416 60.0803 71.988 59.0723 70.212C58.0883 68.436 57.5963 66.48 57.5963 64.344C57.5963 62.472 57.9083 60.792 58.5323 59.304C59.1563 57.792 60.1163 56.496 61.4123 55.416C62.7083 54.312 64.3883 53.412 66.4523 52.716C68.0123 52.212 69.8363 51.756 71.9243 51.348C74.0363 50.94 76.3163 50.568 78.7643 50.232C81.2363 49.872 83.8163 49.488 86.5043 49.08L83.4083 50.844C83.4323 48.156 82.8323 46.176 81.6083 44.904C80.3843 43.632 78.3203 42.996 75.4163 42.996C73.6643 42.996 71.9723 43.404 70.3403 44.22C68.7083 45.036 67.5683 46.44 66.9203 48.432L59.0003 45.948C59.9603 42.66 61.7843 40.02 64.4723 38.028C67.1843 36.036 70.8323 35.04 75.4163 35.04C78.8723 35.04 81.9083 35.604 84.5243 36.732C87.1643 37.86 89.1203 39.708 90.3923 42.276C91.0883 43.644 91.5083 45.048 91.6523 46.488C91.7963 47.904 91.8683 49.452 91.8683 51.132V75H84.2723V66.576L85.5323 67.944C83.7803 70.752 81.7283 72.816 79.3763 74.136C77.0483 75.432 74.1323 76.08 70.6283 76.08ZM72.3563 69.168C74.3243 69.168 76.0043 68.82 77.3963 68.124C78.7883 67.428 79.8923 66.576 80.7083 65.568C81.5483 64.56 82.1123 63.612 82.4003 62.724C82.8563 61.62 83.1083 60.36 83.1563 58.944C83.2283 57.504 83.2643 56.34 83.2643 55.452L85.9283 56.244C83.3123 56.652 81.0683 57.012 79.1963 57.324C77.3243 57.636 75.7163 57.936 74.3723 58.224C73.0283 58.488 71.8403 58.788 70.8083 59.124C69.8003 59.484 68.9483 59.904 68.2523 60.384C67.5563 60.864 67.0163 61.416 66.6323 62.04C66.2723 62.664 66.0923 63.396 66.0923 64.236C66.0923 65.196 66.3323 66.048 66.8123 66.792C67.2923 67.512 67.9883 68.088 68.9003 68.52C69.8363 68.952 70.9883 69.168 72.3563 69.168ZM126.693 75V56.28C126.693 55.056 126.609 53.7 126.441 52.212C126.273 50.724 125.877 49.296 125.253 47.928C124.653 46.536 123.741 45.396 122.517 44.508C121.317 43.62 119.685 43.176 117.621 43.176C116.517 43.176 115.425 43.356 114.345 43.716C113.265 44.076 112.281 44.7 111.393 45.588C110.529 46.452 109.833 47.652 109.305 49.188C108.777 50.7 108.513 52.644 108.513 55.02L103.365 52.824C103.365 49.512 104.001 46.512 105.273 43.824C106.569 41.136 108.465 39 110.961 37.416C113.457 35.808 116.529 35.004 120.177 35.004C123.057 35.004 125.433 35.484 127.305 36.444C129.177 37.404 130.665 38.628 131.769 40.116C132.873 41.604 133.689 43.188 134.217 44.868C134.745 46.548 135.081 48.144 135.225 49.656C135.393 51.144 135.477 52.356 135.477 53.292V75H126.693ZM99.7286 75V36.12H107.469V48.18H108.513V75H99.7286ZM153.943 75L139.831 36.12H148.507L158.299 64.308L168.055 36.12H176.767L162.655 75H153.943ZM182.508 30.216V22.26H191.184V30.216H182.508ZM182.508 75V36.12H191.184V75H182.508Z" fill="#04050F"/>
<path d="M8.82334 200V109.246H67.4355V123.489H24.0121V145.862H59.8727V160.106H24.0121V185.757H67.4355V200H8.82334ZM72.4725 200L97.367 165.589L72.9767 131.934H90.8755L106.19 153.677L121.253 131.934H139.152L114.762 165.589L139.782 200H121.883L106.19 177.5L90.3713 200H72.4725ZM180.018 201.891C173.379 201.891 167.812 200.315 163.317 197.164C158.821 194.013 155.439 189.727 153.17 184.307C150.901 178.845 149.766 172.732 149.766 165.967C149.766 159.119 150.901 152.984 153.17 147.564C155.439 142.144 158.758 137.879 163.127 134.77C167.539 131.619 172.98 130.044 179.451 130.044C185.879 130.044 191.446 131.619 196.152 134.77C200.9 137.879 204.576 142.144 207.181 147.564C209.786 152.942 211.089 159.076 211.089 165.967C211.089 172.774 209.807 178.887 207.244 184.307C204.681 189.727 201.068 194.013 196.404 197.164C191.74 200.315 186.278 201.891 180.018 201.891ZM147.182 230.251V131.934H160.606V179.706H162.497V230.251H147.182ZM177.686 188.278C181.635 188.278 184.892 187.29 187.455 185.315C190.018 183.341 191.908 180.673 193.127 177.311C194.387 173.908 195.018 170.127 195.018 165.967C195.018 161.85 194.387 158.11 193.127 154.749C191.866 151.346 189.913 148.657 187.266 146.682C184.619 144.665 181.257 143.657 177.182 143.657C173.316 143.657 170.165 144.602 167.728 146.493C165.291 148.341 163.485 150.946 162.308 154.308C161.174 157.627 160.606 161.513 160.606 165.967C160.606 170.379 161.174 174.265 162.308 177.627C163.485 180.988 165.312 183.614 167.791 185.505C170.312 187.353 173.61 188.278 177.686 188.278ZM253.404 201.891C246.514 201.891 240.463 200.399 235.253 197.416C230.043 194.433 225.968 190.294 223.027 185C220.128 179.706 218.678 173.614 218.678 166.723C218.678 159.287 220.107 152.837 222.964 147.375C225.821 141.871 229.791 137.606 234.875 134.581C239.959 131.556 245.841 130.044 252.522 130.044C259.581 130.044 265.568 131.703 270.484 135.022C275.442 138.3 279.118 142.942 281.513 148.951C283.908 154.959 284.811 162.039 284.223 170.19H269.16V164.644C269.118 157.249 267.816 151.85 265.253 148.446C262.69 145.043 258.656 143.342 253.152 143.342C246.934 143.342 242.312 145.274 239.287 149.14C236.262 152.963 234.749 158.572 234.749 165.967C234.749 172.858 236.262 178.194 239.287 181.975C242.312 185.757 246.724 187.647 252.522 187.647C256.261 187.647 259.476 186.828 262.165 185.189C264.896 183.509 266.996 181.093 268.467 177.942L283.467 182.479C280.862 188.614 276.828 193.382 271.366 196.786C265.946 200.189 259.959 201.891 253.404 201.891ZM229.959 170.19V158.719H276.786V170.19H229.959ZM295.764 200V131.934H309.188V148.509L307.55 146.367C308.39 144.098 309.503 142.039 310.89 140.19C312.318 138.3 314.02 136.745 315.995 135.527C317.675 134.392 319.524 133.51 321.541 132.88C323.6 132.207 325.7 131.808 327.843 131.682C329.986 131.514 332.066 131.598 334.083 131.934V146.115C332.066 145.526 329.734 145.337 327.087 145.547C324.482 145.757 322.129 146.493 320.028 147.753C317.928 148.888 316.205 150.337 314.86 152.102C313.558 153.867 312.592 155.883 311.961 158.152C311.331 160.379 311.016 162.795 311.016 165.4V200H295.764ZM344.849 121.598V107.67H360.038V121.598H344.849ZM344.849 200V131.934H360.038V200H344.849ZM407.34 201.891C400.449 201.891 394.399 200.399 389.189 197.416C383.979 194.433 379.904 190.294 376.963 185C374.063 179.706 372.614 173.614 372.614 166.723C372.614 159.287 374.042 152.837 376.899 147.375C379.757 141.871 383.727 137.606 388.811 134.581C393.895 131.556 399.777 130.044 406.458 130.044C413.516 130.044 419.504 131.703 424.419 135.022C429.377 138.3 433.054 142.942 435.449 148.951C437.844 154.959 438.747 162.039 438.159 170.19H423.096V164.644C423.054 157.249 421.751 151.85 419.189 148.446C416.626 145.043 412.592 143.342 407.088 143.342C400.87 143.342 396.248 145.274 393.223 149.14C390.198 152.963 388.685 158.572 388.685 165.967C388.685 172.858 390.198 178.194 393.223 181.975C396.248 185.757 400.659 187.647 406.458 187.647C410.197 187.647 413.411 186.828 416.1 185.189C418.831 183.509 420.932 181.093 422.403 177.942L437.402 182.479C434.797 188.614 430.764 193.382 425.302 196.786C419.882 200.189 413.895 201.891 407.34 201.891ZM383.895 170.19V158.719H430.722V170.19H383.895ZM494.932 200V167.228C494.932 165.085 494.785 162.711 494.491 160.106C494.197 157.501 493.504 155.001 492.411 152.606C491.361 150.169 489.764 148.173 487.622 146.619C485.521 145.064 482.664 144.287 479.05 144.287C477.118 144.287 475.206 144.602 473.315 145.232C471.424 145.862 469.702 146.955 468.147 148.509C466.635 150.022 465.416 152.123 464.492 154.812C463.568 157.459 463.105 160.862 463.105 165.022L454.093 161.177C454.093 155.379 455.206 150.127 457.433 145.421C459.702 140.716 463.021 136.976 467.391 134.203C471.761 131.388 477.139 129.98 483.525 129.98C488.567 129.98 492.727 130.821 496.004 132.501C499.281 134.182 501.886 136.325 503.819 138.93C505.751 141.535 507.18 144.308 508.104 147.249C509.029 150.19 509.617 152.984 509.869 155.631C510.163 158.236 510.31 160.358 510.31 161.997V200H494.932ZM447.728 200V131.934H461.278V153.047H463.105V200H447.728ZM552.686 201.891C545.669 201.891 539.682 200.336 534.724 197.227C529.766 194.076 525.964 189.79 523.317 184.37C520.712 178.95 519.388 172.816 519.346 165.967C519.388 158.992 520.754 152.816 523.443 147.438C526.174 142.018 530.039 137.774 535.039 134.707C540.039 131.598 545.984 130.044 552.875 130.044C560.606 130.044 567.139 131.997 572.475 135.905C577.853 139.77 581.362 145.064 583 151.787L567.875 155.883C566.698 152.228 564.744 149.392 562.013 147.375C559.282 145.316 556.173 144.287 552.686 144.287C548.736 144.287 545.48 145.232 542.917 147.123C540.354 148.972 538.463 151.535 537.245 154.812C536.027 158.089 535.417 161.808 535.417 165.967C535.417 172.438 536.867 177.669 539.766 181.66C542.665 185.652 546.972 187.647 552.686 187.647C556.719 187.647 559.892 186.723 562.202 184.874C564.555 183.026 566.32 180.358 567.496 176.87L583 180.337C580.9 187.269 577.223 192.605 571.971 196.345C566.719 200.042 560.291 201.891 552.686 201.891ZM622.207 201.891C615.317 201.891 609.266 200.399 604.056 197.416C598.846 194.433 594.771 190.294 591.83 185C588.931 179.706 587.481 173.614 587.481 166.723C587.481 159.287 588.91 152.837 591.767 147.375C594.624 141.871 598.594 137.606 603.678 134.581C608.762 131.556 614.644 130.044 621.325 130.044C628.383 130.044 634.371 131.703 639.287 135.022C644.245 138.3 647.921 142.942 650.316 148.951C652.711 154.959 653.614 162.039 653.026 170.19H637.963V164.644C637.921 157.249 636.619 151.85 634.056 148.446C631.493 145.043 627.459 143.342 621.955 143.342C615.737 143.342 611.115 145.274 608.09 149.14C605.065 152.963 603.552 158.572 603.552 165.967C603.552 172.858 605.065 178.194 608.09 181.975C611.115 185.757 615.527 187.647 621.325 187.647C625.064 187.647 628.278 186.828 630.967 185.189C633.699 183.509 635.799 181.093 637.27 177.942L652.27 182.479C649.665 188.614 645.631 193.382 640.169 196.786C634.749 200.189 628.762 201.891 622.207 201.891ZM598.762 170.19V158.719H645.589V170.19H598.762Z" fill="#E8B979"/>
<path fill-rule="evenodd" clip-rule="evenodd" d="M391.275 732.284H383.035V691.087H341.837V682.847H383.035V633.41H341.837V625.17H383.035V583.972H391.275V625.17H440.712V583.972H448.951V625.17H490.149V633.41H448.951V682.847H490.149V691.087H448.951V732.284H440.712V691.087H391.275V732.284ZM391.275 633.41H440.712V682.847H391.275V633.41Z" fill="#EAE2D4"/>
<path fill-rule="evenodd" clip-rule="evenodd" d="M329.478 559.254H502.509C509.335 559.254 514.868 564.787 514.868 571.613V744.644C514.868 751.47 509.335 757.003 502.509 757.003H329.478C322.652 757.003 317.119 751.47 317.119 744.644V571.613C317.119 564.787 322.652 559.254 329.478 559.254ZM494.269 740.524C496.543 740.524 498.389 738.678 498.389 736.404V579.853C498.389 577.579 496.543 575.733 494.269 575.733H337.718C335.443 575.733 333.598 577.579 333.598 579.853V736.404C333.598 738.678 335.443 740.524 337.718 740.524H494.269Z" fill="#EAE2D4"/>
<path fill-rule="evenodd" clip-rule="evenodd" d="M77.771 714.79C77.771 690.859 97.1692 671.46 121.1 671.46C145.031 671.46 164.429 690.859 164.429 714.79C164.429 738.721 145.031 758.119 121.1 758.119C97.1692 758.119 77.771 738.721 77.771 714.79ZM177.761 714.79C177.761 683.496 152.394 658.128 121.1 658.128C89.8065 658.128 64.439 683.496 64.439 714.79C64.439 746.083 89.8065 771.451 121.1 771.451C152.394 771.451 177.761 746.083 177.761 714.79Z" fill="#EAE2D4"/>
<path d="M157.442 719.41C141.817 723.237 129.548 735.509 125.722 751.13C124.206 751.324 122.669 751.454 121.099 751.454C118.026 751.454 115.06 751.034 112.207 750.321C116.663 727.963 134.271 710.354 156.632 705.898C157.342 708.748 157.762 711.718 157.762 714.791C157.762 716.357 157.632 717.894 157.442 719.41Z" fill="#EAE2D4"/>
<path d="M184.428 714.791C184.428 712.201 184.224 709.668 183.924 707.162C207.336 714.121 224.424 735.779 224.424 761.453C224.424 792.743 199.056 818.114 167.763 818.114C142.088 818.114 120.434 801.026 113.471 777.615C115.978 777.915 118.511 778.118 121.101 778.118C123.307 778.118 125.49 777.998 127.64 777.778C134.093 793.61 149.614 804.782 167.763 804.782C191.694 804.782 211.092 785.381 211.092 761.453C211.092 743.302 199.923 727.783 184.091 721.33C184.311 719.181 184.428 717.001 184.428 714.791Z" fill="#EAE2D4"/>
<path d="M236.216 452.865C237.229 453.878 238.16 454.941 239.035 456.034L246.695 448.374C247.521 447.547 247.521 446.206 246.695 445.38L243.701 442.385C242.874 441.559 241.533 441.559 240.707 442.385L233.047 450.046C234.139 450.92 235.202 451.851 236.216 452.865Z" fill="#EAE2D4"/>
<path d="M182.324 506.757C181.31 505.743 180.379 504.68 179.505 503.588L171.844 511.248C171.018 512.074 171.018 513.416 171.844 514.242L174.838 517.236C175.665 518.062 177.006 518.062 177.833 517.236L185.493 509.576C184.4 508.701 183.337 507.77 182.324 506.757Z" fill="#EAE2D4"/>
<path d="M179.504 456.034C180.379 454.941 181.31 453.878 182.323 452.864C183.337 451.851 184.4 450.92 185.492 450.045L177.832 442.385C177.006 441.559 175.665 441.559 174.838 442.385L171.844 445.379C171.018 446.206 171.018 447.547 171.844 448.373L179.504 456.034Z" fill="#EAE2D4"/>
<path d="M246.695 514.242C247.522 513.416 247.522 512.074 246.695 511.248L239.035 503.588C238.161 504.681 237.23 505.744 236.216 506.757C235.203 507.771 234.14 508.702 233.047 509.576L240.707 517.236C241.533 518.063 242.875 518.063 243.701 517.236L246.695 514.242Z" fill="#EAE2D4"/>
<path d="M205.036 431.117V441.961C207.85 441.647 210.689 441.647 213.503 441.961L213.504 431.118C213.504 429.948 212.557 429 211.386 429H207.153C205.983 428.999 205.034 429.948 205.036 431.117Z" fill="#EAE2D4"/>
<path d="M213.504 528.505V517.66C210.688 517.973 207.851 517.975 205.036 517.66L205.035 528.503C205.035 529.674 205.983 530.621 207.153 530.621H211.387C212.556 530.623 213.505 529.674 213.504 528.505Z" fill="#EAE2D4"/>
<path d="M171.42 484.044C171.106 481.23 171.106 478.391 171.42 475.577H160.576C159.407 475.575 158.457 476.524 158.459 477.694V481.927C158.459 483.098 159.407 484.045 160.577 484.045L171.42 484.044Z" fill="#EAE2D4"/>
<path d="M247.119 475.577C247.434 478.392 247.432 481.229 247.119 484.045H257.964C259.133 484.046 260.082 483.097 260.08 481.928V477.694C260.08 476.524 259.133 475.576 257.962 475.576L247.119 475.577Z" fill="#EAE2D4"/>
<path d="M194.3 464.84C190.937 468.203 188.964 472.418 188.338 476.79L206.249 458.879C201.876 459.506 197.662 461.478 194.3 464.84Z" fill="#EAE2D4"/>
<path d="M212.244 458.872L188.332 482.784C188.561 484.402 188.962 485.998 189.565 487.539L216.997 460.107C215.458 459.503 213.861 459.103 212.244 458.872Z" fill="#EAE2D4"/>
<path d="M220.945 462.147L191.607 491.486C192.376 492.65 193.274 493.755 194.3 494.781L224.24 464.84C223.215 463.815 222.108 462.918 220.945 462.147Z" fill="#EAE2D4"/>
<path fill-rule="evenodd" clip-rule="evenodd" d="M185.317 455.858C198.545 442.631 219.994 442.631 233.222 455.858C246.45 469.086 246.45 490.535 233.222 503.763C219.994 516.991 198.545 516.991 185.317 503.763C172.09 490.535 172.09 469.086 185.317 455.858ZM191.305 461.846C181.385 471.767 181.385 487.854 191.305 497.775C201.226 507.696 217.313 507.696 227.234 497.775C237.155 487.854 237.155 471.767 227.234 461.846C217.313 451.926 201.226 451.926 191.305 461.846Z" fill="#EAE2D4"/>
<path fill-rule="evenodd" clip-rule="evenodd" d="M50.3592 539.931H7.30538C4.92737 539.931 3 541.859 3 544.237V575.81C3 578.188 4.92737 580.115 7.30538 580.115H53.2294C54.0216 580.115 54.6645 579.472 54.6645 578.68V544.237C54.6645 541.859 52.7372 539.931 50.3592 539.931ZM10.1756 574.374C9.38344 574.374 8.7405 573.731 8.7405 572.939V547.107C8.7405 546.315 9.38344 545.672 10.1756 545.672H47.4889C48.2811 545.672 48.924 546.315 48.924 547.107V572.939C48.924 573.731 48.2811 574.374 47.4889 574.374H10.1756Z" fill="#EAE2D4"/>
<path d="M58.9699 548.542H57.5348V581.55C57.5348 582.342 56.8918 582.985 56.0997 582.985H17.3513V584.42C17.3513 586.798 19.2786 588.726 21.6566 588.726H61.8402C62.6324 588.726 63.2753 588.083 63.2753 587.291V552.848C63.2753 550.47 61.3479 548.542 58.9699 548.542Z" fill="#EAE2D4"/>
<path d="M67.5807 557.153H66.1455V590.161C66.1455 590.953 65.5026 591.596 64.7104 591.596H25.962V593.031C25.962 595.409 27.8894 597.336 30.2674 597.336H67.5807C69.9587 597.336 71.886 595.409 71.886 593.031V561.458C71.886 559.08 69.9587 557.153 67.5807 557.153Z" fill="#EAE2D4"/>
</svg>
